<?xml version="1.0" encoding="UTF-8" standalone="no"?>
<!-- Created with Inkscape (http://www.inkscape.org/) -->

<svg
   width="512"
   height="512"
   viewBox="0 0 512 512"
   version="1.1"
   id="svg1"
   inkscape:version="1.4.3 (0d15f75, 2025-12-25)"
   sodipodi:docname="mg_logo.svg"
   inkscape:export-filename="mg_logo.png"
   inkscape:export-xdpi="96"
   inkscape:export-ydpi="96"
   xml:space="preserve"
   xmlns:inkscape="http://www.inkscape.org/namespaces/inkscape"
   xmlns:sodipodi="http://sodipodi.sourceforge.net/DTD/sodipodi-0.dtd"
   xmlns:xlink="http://www.w3.org/1999/xlink"
   xmlns="http://www.w3.org/2000/svg"
   xmlns:svg="http://www.w3.org/2000/svg"><sodipodi:namedview
     id="namedview1"
     pagecolor="#636363"
     bordercolor="#eeeeee"
     borderopacity="1"
     inkscape:showpageshadow="true"
     inkscape:pageopacity="0"
     inkscape:pagecheckerboard="0"
     inkscape:deskcolor="#222222"
     inkscape:document-units="px"
     inkscape:zoom="1.1918616"
     inkscape:cx="173.67788"
     inkscape:cy="216.46808"
     inkscape:window-width="1920"
     inkscape:window-height="1051"
     inkscape:window-x="-9"
     inkscape:window-y="-9"
     inkscape:window-maximized="1"
     inkscape:current-layer="layer1"
     showgrid="false"><inkscape:page
       x="0"
       y="0"
       width="512"
       height="512"
       id="page2"
       margin="0"
       bleed="0" /></sodipodi:namedview><defs
     id="defs1"><linearGradient
       id="linearGradient324"
       inkscape:collect="always"><stop
         style="stop-color:#d662ab;stop-opacity:0.25;"
         offset="0"
         id="stop322" /><stop
         style="stop-color:#b071df;stop-opacity:0.25;"
         offset="0.5"
         id="stop323" /><stop
         style="stop-color:#917df1;stop-opacity:0.25;"
         offset="1"
         id="stop324" /></linearGradient><linearGradient
       id="linearGradient304"
       inkscape:collect="always"><stop
         style="stop-color:#d662ab;stop-opacity:1;"
         offset="0"
         id="stop305" /><stop
         style="stop-color:#b071df;stop-opacity:1;"
         offset="0.5"
         id="stop307" /><stop
         style="stop-color:#917df1;stop-opacity:1;"
         offset="1"
         id="stop306" /></linearGradient><linearGradient
       inkscape:collect="always"
       xlink:href="#linearGradient324"
       id="linearGradient305"
       x1="-1.763394"
       y1="477.37946"
       x2="291.92886"
       y2="183.68718"
       gradientUnits="userSpaceOnUse"
       gradientTransform="matrix(1.5000584,0,0,1.4303211,39.394528,-215.33885)" /><linearGradient
       inkscape:collect="always"
       xlink:href="#linearGradient304"
       id="linearGradient316"
       gradientUnits="userSpaceOnUse"
       x1="-1.763394"
       y1="477.37946"
       x2="291.92886"
       y2="183.68718"
       gradientTransform="matrix(1.7791366,0,0,1.6964335,-0.85091988,-303.02267)" /><filter
       inkscape:collect="always"
       style="color-interpolation-filters:sRGB"
       id="filter319"
       x="-0.075"
       y="-0.075"
       width="1.15"
       height="1.15"><feGaussianBlur
         inkscape:collect="always"
         stdDeviation="16"
         id="feGaussianBlur319" /></filter><clipPath
       clipPathUnits="userSpaceOnUse"
       id="clipPath320"><path
         id="path321"
         style="baseline-shift:baseline;display:inline;overflow:visible;vector-effect:none;fill:url(#linearGradient321);fill-opacity:1;stroke:none;stroke-width:1.69103;stroke-linecap:round;stroke-linejoin:round;stroke-opacity:1;enable-background:accumulate;stop-color:#000000"
         d="M 481.41803,0.00516525 A 31.175458,29.726268 0 0 0 454.33615,14.044204 L 287.17117,270.92282 V 136.79407 A 31.175458,29.726268 0 0 0 264.5424,108.21598 31.175458,29.726268 0 0 0 229.51331,121.12223 L 4.6846057,466.60423 A 31.17234,29.723293 0 0 0 14.737279,507.53193 31.17234,29.723293 0 0 0 57.662798,497.946 L 224.82779,241.06934 v 134.1268 a 31.17234,29.723293 0 0 0 0.10159,1.48242 31.17234,29.723293 0 0 0 0.1329,1.91991 31.17234,29.723293 0 0 0 0.3379,1.94142 31.17234,29.723293 0 0 0 0.39063,1.87303 31.17234,29.723293 0 0 0 0.60936,1.91016 31.17234,29.723293 0 0 0 0.63673,1.78906 31.17234,29.723293 0 0 0 0.85545,1.79491 31.17234,29.723293 0 0 0 0.89258,1.72461 31.17234,29.723293 0 0 0 1.11132,1.69923 31.17234,29.723293 0 0 0 1.07616,1.53905 31.17234,29.723293 0 0 0 1.36327,1.58204 31.17234,29.723293 0 0 0 1.2871,1.39647 31.17234,29.723293 0 0 0 1.54687,1.37697 31.17234,29.723293 0 0 0 1.45898,1.22266 31.17234,29.723293 0 0 0 1.75585,1.19724 31.17234,29.723293 0 0 0 1.18163,0.80469 31.17234,29.723293 0 0 0 0.4121,0.21094 31.17234,29.723293 0 0 0 1.89062,0.96094 31.17234,29.723293 0 0 0 1.74023,0.81641 31.17234,29.723293 0 0 0 1.99412,0.71484 31.17234,29.723293 0 0 0 1.83397,0.59376 31.17234,29.723293 0 0 0 2.12109,0.46873 31.17234,29.723293 0 0 0 1.84763,0.35157 31.17234,29.723293 0 0 0 2.17187,0.20311 31.17234,29.723293 0 0 0 1.90037,0.11724 31.17234,29.723293 0 0 0 0.52345,0.0332 31.17234,29.723293 0 0 0 1.60545,-0.10162 31.17234,29.723293 0 0 0 1.95507,-0.12299 31.17234,29.723293 0 0 0 2.06444,-0.32617 31.17234,29.723293 0 0 0 1.93749,-0.36718 31.17234,29.723293 0 0 0 2.03514,-0.59179 31.17234,29.723293 0 0 0 1.83984,-0.59571 31.17234,29.723293 0 0 0 1.91601,-0.83008 31.17234,29.723293 0 0 0 1.77732,-0.83399 31.17234,29.723293 0 0 0 1.75781,-1.04491 31.17234,29.723293 0 0 0 1.67187,-1.06641 31.17234,29.723293 0 0 0 1.59373,-1.24999 31.17234,29.723293 0 0 0 1.50195,-1.25587 31.17234,29.723293 0 0 0 1.41991,-1.4453 31.17234,29.723293 0 0 0 1.32617,-1.44531 31.17234,29.723293 0 0 0 1.1699,-1.55859 31.17234,29.723293 0 0 0 0.91407,-1.2168 L 449.65272,133.98751 V 268.11823 A 31.17234,29.723293 0 0 0 480.82636,297.83889 31.17234,29.723293 0 0 0 512,268.11823 V 29.714194 A 31.175458,29.726268 0 0 0 489.36732,1.1400119 31.175458,29.726268 0 0 0 481.41815,0.00525026 Z M 419.24848,310.37981 a 31.17234,29.723293 0 0 0 -31.17364,29.72457 31.17234,29.723293 0 0 0 31.17364,29.72458 h 30.40411 v 49.51165 L 364.1082,352.24109 a 31.17234,29.723293 0 0 0 -43.87669,4.07226 31.17234,29.723293 0 0 0 4.2695,41.83784 L 461.0236,505.23114 a 31.175458,29.726268 0 0 0 50.97627,-22.95506 v -142.1717 a 31.175458,29.726268 0 0 0 -31.17364,-29.72457 z"
         inkscape:label="path" /></clipPath><linearGradient
       inkscape:collect="always"
       xlink:href="#linearGradient304"
       id="linearGradient321"
       gradientUnits="userSpaceOnUse"
       gradientTransform="matrix(1.7791366,0,0,1.6964334,-0.85091988,-303.02267)"
       x1="-1.763394"
       y1="477.37946"
       x2="291.92886"
       y2="183.68718" /><linearGradient
       inkscape:collect="always"
       xlink:href="#linearGradient304"
       id="linearGradient322"
       gradientUnits="userSpaceOnUse"
       gradientTransform="matrix(1.7791366,0,0,1.6964335,-0.85091988,-303.02267)"
       x1="-1.763394"
       y1="477.37946"
       x2="291.92886"
       y2="183.68718" /><filter
       inkscape:collect="always"
       style="color-interpolation-filters:sRGB"
       id="filter330"
       x="-0.036912479"
       y="-0.035274019"
       width="1.0739061"
       height="1.0704706"><feGaussianBlur
         inkscape:collect="always"
         stdDeviation="2.3024323"
         id="feGaussianBlur330" /></filter><linearGradient
       inkscape:collect="always"
       xlink:href="#linearGradient324"
       id="linearGradient331"
       gradientUnits="userSpaceOnUse"
       x1="-1.763394"
       y1="477.37946"
       x2="291.92886"
       y2="183.68718" /><linearGradient
       inkscape:collect="always"
       xlink:href="#linearGradient324"
       id="linearGradient332"
       gradientUnits="userSpaceOnUse"
       x1="-1.763394"
       y1="477.37946"
       x2="291.92886"
       y2="183.68718"
       gradientTransform="matrix(1.5000584,0,0,1.4303211,39.394528,-215.33885)" /></defs><g
     inkscape:label="Logo"
     inkscape:groupmode="layer"
     id="layer1"><path
       id="path330"
       style="baseline-shift:baseline;display:inline;overflow:visible;opacity:1;mix-blend-mode:normal;fill:url(#linearGradient331);fill-opacity:1;stroke:#ffffff;stroke-width:10.2404;stroke-linecap:round;stroke-linejoin:round;stroke-dasharray:none;stroke-opacity:1;filter:url(#filter330);enable-background:accumulate;stop-color:#000000;stop-opacity:1"
       d="m 271.06909,178.62642 a 17.522802,17.522802 0 0 0 -15.22192,8.27562 l -93.95849,151.42275 v -79.06514 a 17.522802,17.522802 0 0 0 -12.71896,-16.84599 17.522802,17.522802 0 0 0 -19.68881,7.60787 L 3.1113553,453.6735 a 17.521049,17.521049 0 0 0 5.6503097,24.12573 17.521049,17.521049 0 0 0 24.127163,-5.65064 L 126.84732,320.727 v 79.06399 a 17.521049,17.521049 0 0 0 0.0571,0.87384 17.521049,17.521049 0 0 0 0.0747,1.13174 17.521049,17.521049 0 0 0 0.18992,1.14441 17.521049,17.521049 0 0 0 0.21956,1.1041 17.521049,17.521049 0 0 0 0.34251,1.12599 17.521049,17.521049 0 0 0 0.35788,1.0546 17.521049,17.521049 0 0 0 0.48083,1.05805 17.521049,17.521049 0 0 0 0.50169,1.01661 17.521049,17.521049 0 0 0 0.62464,1.00164 17.521049,17.521049 0 0 0 0.60488,0.90723 17.521049,17.521049 0 0 0 0.76625,0.93257 17.521049,17.521049 0 0 0 0.72344,0.82318 17.521049,17.521049 0 0 0 0.86945,0.81168 17.521049,17.521049 0 0 0 0.82005,0.72072 17.521049,17.521049 0 0 0 0.98691,0.70575 17.521049,17.521049 0 0 0 0.66416,0.47434 17.521049,17.521049 0 0 0 0.23163,0.12434 17.521049,17.521049 0 0 0 1.06266,0.56645 17.521049,17.521049 0 0 0 0.97813,0.48125 17.521049,17.521049 0 0 0 1.12084,0.42138 17.521049,17.521049 0 0 0 1.03082,0.35 17.521049,17.521049 0 0 0 1.1922,0.27631 17.521049,17.521049 0 0 0 1.0385,0.20724 17.521049,17.521049 0 0 0 1.22074,0.11973 17.521049,17.521049 0 0 0 1.06815,0.0691 17.521049,17.521049 0 0 0 0.29421,0.0196 17.521049,17.521049 0 0 0 0.90238,-0.0599 17.521049,17.521049 0 0 0 1.09888,-0.0725 17.521049,17.521049 0 0 0 1.16036,-0.19227 17.521049,17.521049 0 0 0 1.08901,-0.21644 17.521049,17.521049 0 0 0 1.14389,-0.34885 17.521049,17.521049 0 0 0 1.03412,-0.35115 17.521049,17.521049 0 0 0 1.07693,-0.48931 17.521049,17.521049 0 0 0 0.99898,-0.49161 17.521049,17.521049 0 0 0 0.98801,-0.61595 17.521049,17.521049 0 0 0 0.93971,-0.62861 17.521049,17.521049 0 0 0 0.89579,-0.73684 17.521049,17.521049 0 0 0 0.8442,-0.7403 17.521049,17.521049 0 0 0 0.79809,-0.85197 17.521049,17.521049 0 0 0 0.7454,-0.85197 17.521049,17.521049 0 0 0 0.65757,-0.91874 17.521049,17.521049 0 0 0 0.51377,-0.71727 l 93.95849,-151.4239 v 79.0663 a 17.521049,17.521049 0 0 0 17.52178,17.5195 17.521049,17.521049 0 0 0 17.52178,-17.5195 v -140.5325 a 17.522802,17.522802 0 0 0 -12.72116,-16.84368 17.522802,17.522802 0 0 0 -4.46799,-0.66891 z m -34.94366,182.95716 a 17.521049,17.521049 0 0 0 -17.52178,17.5218 17.521049,17.521049 0 0 0 17.52178,17.52181 h 17.08925 v 29.18573 l -48.08197,-39.55329 a 17.521049,17.521049 0 0 0 -24.66179,2.40048 17.521049,17.521049 0 0 0 2.39976,24.66224 l 76.73531,63.12063 a 17.522802,17.522802 0 0 0 28.65225,-13.53136 v -83.80624 a 17.522802,17.522802 0 0 0 -17.52178,-17.5218 z"
       transform="matrix(1.5000584,0,0,1.4303211,39.421616,-215.31418)" /><path
       id="path327"
       style="baseline-shift:baseline;display:inline;overflow:visible;opacity:1;fill:url(#linearGradient305);fill-opacity:1;stroke:#ffffff;stroke-width:15;stroke-linecap:round;stroke-linejoin:round;stroke-dasharray:none;stroke-opacity:1;enable-background:accumulate;stop-color:#000000;stop-opacity:1"
       d="M 446.01399,40.154282 A 26.285227,25.063233 0 0 0 423.18021,51.991076 L 282.237,268.57423 V 155.48569 a 26.285227,25.063233 0 0 0 -19.07919,-24.09517 26.285227,25.063233 0 0 0 -29.53436,10.88169 L 44.061743,433.55992 a 26.282597,25.060725 0 0 0 8.475794,34.50754 26.282597,25.060725 0 0 0 36.192154,-8.08223 L 229.67291,243.40374 v 113.08688 a 26.282597,25.060725 0 0 0 0.0858,1.24987 26.282597,25.060725 0 0 0 0.11206,1.61875 26.282597,25.060725 0 0 0 0.28489,1.63688 26.282597,25.060725 0 0 0 0.32936,1.57923 26.282597,25.060725 0 0 0 0.51378,1.61052 26.282597,25.060725 0 0 0 0.53685,1.50841 26.282597,25.060725 0 0 0 0.72126,1.51337 26.282597,25.060725 0 0 0 0.75256,1.45407 26.282597,25.060725 0 0 0 0.937,1.43267 26.282597,25.060725 0 0 0 0.90736,1.29763 26.282597,25.060725 0 0 0 1.14943,1.33387 26.282597,25.060725 0 0 0 1.08519,1.17741 26.282597,25.060725 0 0 0 1.30423,1.16096 26.282597,25.060725 0 0 0 1.23013,1.03086 26.282597,25.060725 0 0 0 1.48042,1.00945 26.282597,25.060725 0 0 0 0.99628,0.67847 26.282597,25.060725 0 0 0 0.34746,0.17784 26.282597,25.060725 0 0 0 1.59405,0.81022 26.282597,25.060725 0 0 0 1.46725,0.68834 26.282597,25.060725 0 0 0 1.68133,0.60269 26.282597,25.060725 0 0 0 1.54628,0.5006 26.282597,25.060725 0 0 0 1.78838,0.39522 26.282597,25.060725 0 0 0 1.55782,0.29642 26.282597,25.060725 0 0 0 1.83117,0.17126 26.282597,25.060725 0 0 0 1.60229,0.0989 26.282597,25.060725 0 0 0 0.44133,0.0281 26.282597,25.060725 0 0 0 1.35362,-0.0858 26.282597,25.060725 0 0 0 1.64839,-0.1037 26.282597,25.060725 0 0 0 1.74059,-0.27501 26.282597,25.060725 0 0 0 1.63359,-0.30958 26.282597,25.060725 0 0 0 1.71591,-0.49897 26.282597,25.060725 0 0 0 1.55123,-0.50225 26.282597,25.060725 0 0 0 1.61546,-0.69988 26.282597,25.060725 0 0 0 1.49853,-0.70316 26.282597,25.060725 0 0 0 1.48206,-0.881 26.282597,25.060725 0 0 0 1.40963,-0.89912 26.282597,25.060725 0 0 0 1.34375,-1.05391 26.282597,25.060725 0 0 0 1.26633,-1.05887 26.282597,25.060725 0 0 0 1.19719,-1.2186 26.282597,25.060725 0 0 0 1.11815,-1.21858 26.282597,25.060725 0 0 0 0.98638,-1.31409 26.282597,25.060725 0 0 0 0.77069,-1.02593 l 140.9431,-216.58482 v 113.09018 a 26.282597,25.060725 0 0 0 26.28369,25.05852 26.282597,25.060725 0 0 0 26.28369,-25.05852 V 65.202981 A 26.285227,25.063233 0 0 0 452.71632,41.11111 26.285227,25.063233 0 0 0 446.01409,40.154354 Z M 393.59645,301.84176 a 26.282597,25.060725 0 0 0 -26.2837,25.0618 26.282597,25.060725 0 0 0 26.2837,25.06181 h 25.63488 v 41.74498 l -72.12578,-56.57391 a 26.282597,25.060725 0 0 0 -36.99412,3.43346 26.282597,25.060725 0 0 0 3.59979,35.27492 l 115.10745,90.28275 A 26.285227,25.063233 0 0 0 471.79871,446.7734 V 326.90356 a 26.285227,25.063233 0 0 0 -26.2837,-25.0618 z" /><path
       id="path13"
       style="baseline-shift:baseline;display:inline;overflow:visible;opacity:1;fill:url(#linearGradient332);fill-opacity:1;stroke:#ffffff;stroke-width:15;stroke-linecap:round;stroke-linejoin:round;stroke-dasharray:none;stroke-opacity:1;enable-background:accumulate;stop-color:#000000;stop-opacity:1"
       d="M 446.01399,40.154282 A 26.285227,25.063233 0 0 0 423.18021,51.991076 L 282.237,268.57423 V 155.48569 a 26.285227,25.063233 0 0 0 -19.07919,-24.09517 26.285227,25.063233 0 0 0 -29.53436,10.88169 L 44.061743,433.55992 a 26.282597,25.060725 0 0 0 8.475794,34.50754 26.282597,25.060725 0 0 0 36.192154,-8.08223 L 229.67291,243.40374 v 113.08688 a 26.282597,25.060725 0 0 0 0.0858,1.24987 26.282597,25.060725 0 0 0 0.11206,1.61875 26.282597,25.060725 0 0 0 0.28489,1.63688 26.282597,25.060725 0 0 0 0.32936,1.57923 26.282597,25.060725 0 0 0 0.51378,1.61052 26.282597,25.060725 0 0 0 0.53685,1.50841 26.282597,25.060725 0 0 0 0.72126,1.51337 26.282597,25.060725 0 0 0 0.75256,1.45407 26.282597,25.060725 0 0 0 0.937,1.43267 26.282597,25.060725 0 0 0 0.90736,1.29763 26.282597,25.060725 0 0 0 1.14943,1.33387 26.282597,25.060725 0 0 0 1.08519,1.17741 26.282597,25.060725 0 0 0 1.30423,1.16096 26.282597,25.060725 0 0 0 1.23013,1.03086 26.282597,25.060725 0 0 0 1.48042,1.00945 26.282597,25.060725 0 0 0 0.99628,0.67847 26.282597,25.060725 0 0 0 0.34746,0.17784 26.282597,25.060725 0 0 0 1.59405,0.81022 26.282597,25.060725 0 0 0 1.46725,0.68834 26.282597,25.060725 0 0 0 1.68133,0.60269 26.282597,25.060725 0 0 0 1.54628,0.5006 26.282597,25.060725 0 0 0 1.78838,0.39522 26.282597,25.060725 0 0 0 1.55782,0.29642 26.282597,25.060725 0 0 0 1.83117,0.17126 26.282597,25.060725 0 0 0 1.60229,0.0989 26.282597,25.060725 0 0 0 0.44133,0.0281 26.282597,25.060725 0 0 0 1.35362,-0.0858 26.282597,25.060725 0 0 0 1.64839,-0.1037 26.282597,25.060725 0 0 0 1.74059,-0.27501 26.282597,25.060725 0 0 0 1.63359,-0.30958 26.282597,25.060725 0 0 0 1.71591,-0.49897 26.282597,25.060725 0 0 0 1.55123,-0.50225 26.282597,25.060725 0 0 0 1.61546,-0.69988 26.282597,25.060725 0 0 0 1.49853,-0.70316 26.282597,25.060725 0 0 0 1.48206,-0.881 26.282597,25.060725 0 0 0 1.40963,-0.89912 26.282597,25.060725 0 0 0 1.34375,-1.05391 26.282597,25.060725 0 0 0 1.26633,-1.05887 26.282597,25.060725 0 0 0 1.19719,-1.2186 26.282597,25.060725 0 0 0 1.11815,-1.21858 26.282597,25.060725 0 0 0 0.98638,-1.31409 26.282597,25.060725 0 0 0 0.77069,-1.02593 l 140.9431,-216.58482 v 113.09018 a 26.282597,25.060725 0 0 0 26.28369,25.05852 26.282597,25.060725 0 0 0 26.28369,-25.05852 V 65.202981 A 26.285227,25.063233 0 0 0 452.71632,41.11111 26.285227,25.063233 0 0 0 446.01409,40.154354 Z M 393.59645,301.84176 a 26.282597,25.060725 0 0 0 -26.2837,25.0618 26.282597,25.060725 0 0 0 26.2837,25.06181 h 25.63488 v 41.74498 l -72.12578,-56.57391 a 26.282597,25.060725 0 0 0 -36.99412,3.43346 26.282597,25.060725 0 0 0 3.59979,35.27492 l 115.10745,90.28275 A 26.285227,25.063233 0 0 0 471.79871,446.7734 V 326.90356 a 26.285227,25.063233 0 0 0 -26.2837,-25.0618 z" /><path
       id="path318"
       style="baseline-shift:baseline;display:inline;overflow:visible;vector-effect:none;fill:url(#linearGradient322);fill-opacity:1;stroke:none;stroke-width:1.94471;stroke-linecap:round;stroke-linejoin:round;stroke-opacity:1;filter:url(#filter319);enable-background:accumulate;stop-color:#000000"
       d="M 481.41803,0.00516525 A 31.175458,29.726268 0 0 0 454.33615,14.044203 L 287.17117,270.92281 V 136.79407 A 31.175458,29.726268 0 0 0 264.5424,108.21598 31.175458,29.726268 0 0 0 229.51331,121.12222 L 4.6846057,466.60423 A 31.17234,29.723294 0 0 0 14.737279,507.53193 31.17234,29.723294 0 0 0 57.662798,497.946 L 224.82779,241.06933 v 134.1268 a 31.17234,29.723294 0 0 0 0.10159,1.48242 31.17234,29.723294 0 0 0 0.1329,1.91993 31.17234,29.723294 0 0 0 0.3379,1.94141 31.17234,29.723294 0 0 0 0.39063,1.87303 31.17234,29.723294 0 0 0 0.60936,1.91016 31.17234,29.723294 0 0 0 0.63673,1.78906 31.17234,29.723294 0 0 0 0.85545,1.79491 31.17234,29.723294 0 0 0 0.89258,1.72461 31.17234,29.723294 0 0 0 1.11132,1.69922 31.17234,29.723294 0 0 0 1.07616,1.53905 31.17234,29.723294 0 0 0 1.36327,1.58205 31.17234,29.723294 0 0 0 1.2871,1.39647 31.17234,29.723294 0 0 0 1.54687,1.37697 31.17234,29.723294 0 0 0 1.45898,1.22265 31.17234,29.723294 0 0 0 1.75585,1.19726 31.17234,29.723294 0 0 0 1.18163,0.80468 31.17234,29.723294 0 0 0 0.4121,0.21093 31.17234,29.723294 0 0 0 1.89062,0.96095 31.17234,29.723294 0 0 0 1.74023,0.8164 31.17234,29.723294 0 0 0 1.99412,0.71485 31.17234,29.723294 0 0 0 1.83397,0.59376 31.17234,29.723294 0 0 0 2.12109,0.46874 31.17234,29.723294 0 0 0 1.84763,0.35157 31.17234,29.723294 0 0 0 2.17187,0.20311 31.17234,29.723294 0 0 0 1.90037,0.11722 31.17234,29.723294 0 0 0 0.52345,0.0332 31.17234,29.723294 0 0 0 1.60545,-0.10162 31.17234,29.723294 0 0 0 1.95507,-0.12299 31.17234,29.723294 0 0 0 2.06444,-0.32617 31.17234,29.723294 0 0 0 1.93749,-0.36718 31.17234,29.723294 0 0 0 2.03514,-0.5918 31.17234,29.723294 0 0 0 1.83984,-0.5957 31.17234,29.723294 0 0 0 1.91601,-0.83009 31.17234,29.723294 0 0 0 1.77732,-0.83399 31.17234,29.723294 0 0 0 1.75781,-1.04491 31.17234,29.723294 0 0 0 1.67187,-1.0664 31.17234,29.723294 0 0 0 1.59373,-1.25 31.17234,29.723294 0 0 0 1.50195,-1.25586 31.17234,29.723294 0 0 0 1.41991,-1.44531 31.17234,29.723294 0 0 0 1.32617,-1.44531 31.17234,29.723294 0 0 0 1.1699,-1.55859 31.17234,29.723294 0 0 0 0.91407,-1.21681 L 449.65272,133.98752 V 268.11823 A 31.17234,29.723294 0 0 0 480.82636,297.83889 31.17234,29.723294 0 0 0 512,268.11823 V 29.714193 A 31.175458,29.726268 0 0 0 489.36732,1.140012 31.175458,29.726268 0 0 0 481.41815,0.00525025 Z M 419.24848,310.37982 a 31.17234,29.723294 0 0 0 -31.17364,29.72457 31.17234,29.723294 0 0 0 31.17364,29.72457 h 30.40411 v 49.51165 L 364.1082,352.24109 a 31.17234,29.723294 0 0 0 -43.87669,4.07225 31.17234,29.723294 0 0 0 4.2695,41.83785 L 461.0236,505.23113 a 31.175458,29.726268 0 0 0 50.97627,-22.95505 V 340.10439 a 31.175458,29.726268 0 0 0 -31.17364,-29.72457 z"
       inkscape:label="path"
       transform="matrix(0.86956496,0,0,0.86956496,33.391378,33.391631)" /><path
       id="path320"
       style="baseline-shift:baseline;display:inline;overflow:visible;vector-effect:none;fill:url(#linearGradient316);fill-opacity:1;stroke:none;stroke-width:2.0057;stroke-linecap:round;stroke-linejoin:round;stroke-opacity:1;filter:url(#filter319);enable-background:accumulate;stop-color:#000000"
       d="M 481.41803,0.00516525 A 31.175458,29.726268 0 0 0 454.33615,14.044203 L 287.17117,270.92281 V 136.79407 A 31.175458,29.726268 0 0 0 264.5424,108.21598 31.175458,29.726268 0 0 0 229.51331,121.12222 L 4.6846057,466.60423 A 31.17234,29.723294 0 0 0 14.737279,507.53193 31.17234,29.723294 0 0 0 57.662798,497.946 L 224.82779,241.06933 v 134.1268 a 31.17234,29.723294 0 0 0 0.10159,1.48242 31.17234,29.723294 0 0 0 0.1329,1.91993 31.17234,29.723294 0 0 0 0.3379,1.94141 31.17234,29.723294 0 0 0 0.39063,1.87303 31.17234,29.723294 0 0 0 0.60936,1.91016 31.17234,29.723294 0 0 0 0.63673,1.78906 31.17234,29.723294 0 0 0 0.85545,1.79491 31.17234,29.723294 0 0 0 0.89258,1.72461 31.17234,29.723294 0 0 0 1.11132,1.69922 31.17234,29.723294 0 0 0 1.07616,1.53905 31.17234,29.723294 0 0 0 1.36327,1.58205 31.17234,29.723294 0 0 0 1.2871,1.39647 31.17234,29.723294 0 0 0 1.54687,1.37697 31.17234,29.723294 0 0 0 1.45898,1.22265 31.17234,29.723294 0 0 0 1.75585,1.19726 31.17234,29.723294 0 0 0 1.18163,0.80468 31.17234,29.723294 0 0 0 0.4121,0.21093 31.17234,29.723294 0 0 0 1.89062,0.96095 31.17234,29.723294 0 0 0 1.74023,0.8164 31.17234,29.723294 0 0 0 1.99412,0.71485 31.17234,29.723294 0 0 0 1.83397,0.59376 31.17234,29.723294 0 0 0 2.12109,0.46874 31.17234,29.723294 0 0 0 1.84763,0.35157 31.17234,29.723294 0 0 0 2.17187,0.20311 31.17234,29.723294 0 0 0 1.90037,0.11722 31.17234,29.723294 0 0 0 0.52345,0.0332 31.17234,29.723294 0 0 0 1.60545,-0.10162 31.17234,29.723294 0 0 0 1.95507,-0.12299 31.17234,29.723294 0 0 0 2.06444,-0.32617 31.17234,29.723294 0 0 0 1.93749,-0.36718 31.17234,29.723294 0 0 0 2.03514,-0.5918 31.17234,29.723294 0 0 0 1.83984,-0.5957 31.17234,29.723294 0 0 0 1.91601,-0.83009 31.17234,29.723294 0 0 0 1.77732,-0.83399 31.17234,29.723294 0 0 0 1.75781,-1.04491 31.17234,29.723294 0 0 0 1.67187,-1.0664 31.17234,29.723294 0 0 0 1.59373,-1.25 31.17234,29.723294 0 0 0 1.50195,-1.25586 31.17234,29.723294 0 0 0 1.41991,-1.44531 31.17234,29.723294 0 0 0 1.32617,-1.44531 31.17234,29.723294 0 0 0 1.1699,-1.55859 31.17234,29.723294 0 0 0 0.91407,-1.21681 L 449.65272,133.98752 V 268.11823 A 31.17234,29.723294 0 0 0 480.82636,297.83889 31.17234,29.723294 0 0 0 512,268.11823 V 29.714193 A 31.175458,29.726268 0 0 0 489.36732,1.140012 31.175458,29.726268 0 0 0 481.41815,0.00525025 Z M 419.24848,310.37982 a 31.17234,29.723294 0 0 0 -31.17364,29.72457 31.17234,29.723294 0 0 0 31.17364,29.72457 h 30.40411 v 49.51165 L 364.1082,352.24109 a 31.17234,29.723294 0 0 0 -43.87669,4.07225 31.17234,29.723294 0 0 0 4.2695,41.83785 L 461.0236,505.23113 a 31.175458,29.726268 0 0 0 50.97627,-22.95505 V 340.10439 a 31.175458,29.726268 0 0 0 -31.17364,-29.72457 z"
       inkscape:label="path"
       clip-path="url(#clipPath320)"
       transform="matrix(0.84313324,0,0,0.84313324,40.157892,40.158137)" /></g></svg>
